<svg xmlns="http://www.w3.org/2000/svg" style="display: none;">
  <symbol id="icon-alarm" viewBox="0 -960 960 960">
    <path fill="currentColor" d="M480-80q-75 0-140.5-28.5t-114-77q-48.5-48.5-77-114T120-440q0-75 28.5-140.5t77-114q48.5-48.5 114-77T480-800q75 0 140.5 28.5t114 77q48.5 48.5 77 114T840-440q0 75-28.5 140.5t-77 114q-48.5 48.5-114 77T480-80Zm0-360Zm112 168 56-56-128-128v-184h-80v216l152 152ZM224-866l56 56-170 170-56-56 170-170Zm512 0 170 170-56 56-170-170 56-56ZM480-160q117 0 198.5-81.5T760-440q0-117-81.5-198.5T480-720q-117 0-198.5 81.5T200-440q0 117 81.5 198.5T480-160Z" />
  </symbol>
  <symbol id="icon-arrow-back" viewBox="0 -960 960 960">
    <path fill="currentColor" d="m313-440 224 224-57 56-320-320 320-320 57 56-224 224h487v80H313Z" />
  </symbol>
  <symbol id="icon-checklist" viewBox="0 -960 960 960">
    <path fill="currentColor" d="M222-200 80-342l56-56 85 85 170-170 56 57-225 226Zm0-320L80-662l56-56 85 85 170-170 56 57-225 226Zm298 240v-80h360v80H520Zm0-320v-80h360v80H520Z" />
  </symbol>
  <symbol id="icon-close" viewBox="0 -960 960 960">
    <path fill="currentColor" d="m256-200-56-56 224-224-224-224 56-56 224 224 224-224 56 56-224 224 224 224-56 56-224-224-224 224Z" />
  </symbol>
  <symbol id="icon-draft" viewBox="0 -960 960 960">
    <path fill="currentColor" d="M240-80q-33 0-56.5-23.5T160-160v-640q0-33 23.5-56.5T240-880h320l240 240v480q0 33-23.5 56.5T720-80H240Zm280-520v-200H240v640h480v-440H520ZM240-800v200-200 640-640Z" />
  </symbol>
  <symbol id="icon-find" viewBox="0 -960 960 960">
    <path fill="currentColor" d="M784-120 532-372q-30 24-69 38t-83 14q-109 0-184.5-75.5T120-580q0-109 75.5-184.5T380-840q109 0 184.5 75.5T640-580q0 44-14 83t-38 69l252 252-56 56ZM380-400q75 0 127.5-52.5T560-580q0-75-52.5-127.5T380-760q-75 0-127.5 52.5T200-580q0 75 52.5 127.5T380-400Z" />
  </symbol>
  <symbol id="icon-home" viewBox="0 -960 960 960">
    <path fill="currentColor" d="M240-200h120v-240h240v240h120v-360L480-740 240-560v360Zm-80 80v-480l320-240 320 240v480H520v-240h-80v240H160Zm320-350Z" />
  </symbol>
  <symbol id="icon-label" viewBox="0 -960 960 960">
    <path fill="currentColor" d="M160-160q-33 0-56.5-23.5T80-240v-480q0-33 23.5-56.5T160-800h440q19 0 36 8.5t28 23.5l216 288-216 288q-11 15-28 23.5t-36 8.5H160Zm0-80h440l180-240-180-240H160v480Zm220-240Z" />
  </symbol>
  <symbol id="icon-menu" viewBox="0 -960 960 960">
    <path fill="currentColor" d="M120-240v-80h720v80H120Zm0-200v-80h720v80H120Zm0-200v-80h720v80H120Z" />
  </symbol>
  <symbol id="icon-plus" viewBox="0 -960 960 960">
    <path fill="currentColor" d="M440-120v-320H120v-80h320v-320h80v320h320v80H520v320h-80Z" />
  </symbol>
  <symbol id="icon-settings" viewBox="0 -960 960 960">
    <path fill="currentColor" d="m370-80-16-128q-13-5-24.5-12T307-235l-119 50L78-375l103-78q-1-7-1-13.5v-27q0-6.5 1-13.5L78-585l110-190 119 50q11-8 23-15t24-12l16-128h220l16 128q13 5 24.5 12t22.5 15l119-50 110 190-103 78q1 7 1 13.5v27q0 6.5-2 13.5l103 78-110 190-118-50q-11 8-23 15t-24 12L590-80H370Zm70-80h79l14-106q31-8 57.5-23.5T639-327l99 41 39-68-86-65q5-14 7-29.5t2-31.5q0-16-2-31.5t-7-29.5l86-65-39-68-99 42q-22-23-48.5-38.5T533-694l-13-106h-79l-14 106q-31 8-57.5 23.5T321-633l-99-41-39 68 86 64q-5 15-7 30t-2 32q0 16 2 31t7 30l-86 65 39 68 99-42q22 23 48.5 38.5T427-266l13 106Zm42-180q58 0 99-41t41-99q0-58-41-99t-99-41q-59 0-99.5 41T342-480q0 58 40.5 99t99.5 41Zm-2-140Z" />
  </symbol>
  <symbol id="icon-sort" viewBox="0 -960 960 960">
    <path fill="currentColor" d="M120-240v-80h240v80H120Zm0-200v-80h480v80H120Zm0-200v-80h720v80H120Z" />
  </symbol>
  <symbol id="icon-star" viewBox="0 -960 960 960">
    <path fill="currentColor" d="m354-287 126-76 126 77-33-144 111-96-146-13-58-136-58 135-146 13 111 97-33 143ZM233-120l65-281L80-590l288-25 112-265 112 265 288 25-218 189 65 281-247-149-247 149Zm247-350Z" />
  </symbol>
  <symbol id="icon-text" viewBox="0 -960 960 960">
    <path fill="currentColor" d="M200-200h560v-367L567-760H200v560Zm0 80q-33 0-56.5-23.5T120-200v-560q0-33 23.5-56.5T200-840h400l240 240v400q0 33-23.5 56.5T760-120H200Zm80-160h400v-80H280v80Zm0-160h400v-80H280v80Zm0-160h280v-80H280v80Zm-80 400v-560 560Z" />
  </symbol>
  <symbol id="icon-trash" viewBox="0 -960 960 960">
    <path fill="currentColor" d="M280-120q-33 0-56.5-23.5T200-200v-520h-40v-80h200v-40h240v40h200v80h-40v520q0 33-23.5 56.5T680-120H280Zm400-600H280v520h400v-520ZM360-280h80v-360h-80v360Zm160 0h80v-360h-80v360ZM280-720v520-520Z" />
  </symbol>
  <symbol id="icon-check" viewBox="0 -960 960 960">
    <path fill="currentColor" d="M382-240 154-468l57-57 171 171 367-367 57 57-424 424Z" />
  </symbol>
</svg>